<svg width="25" height="25" viewBox="0 0 25 25" fill="none" xmlns="http://www.w3.org/2000/svg">
<g clip-path="url(#clip0)">
<g filter="url(#filter0_d)">
<path d="M21.9647 16.9646V14.9646L13.9647 9.9646V4.4646C13.9647 4.06677 13.8066 3.68524 13.5253 3.40394C13.244 3.12263 12.8625 2.9646 12.4647 2.9646C12.0668 2.9646 11.6853 3.12263 11.404 3.40394C11.1227 3.68524 10.9647 4.06677 10.9647 4.4646V9.9646L2.96466 14.9646V16.9646L10.9647 14.4646L10.9647 19.9646L8.96466 21.4646V22.9646L12.4647 21.9646L15.9647 22.9646V21.4646L13.9647 19.9646L13.9647 14.4646L21.9647 16.9646Z" fill="white"/>
</g>
</g>
<defs>
<filter id="filter0_d" x="-0.0353394" y="-0.0354004" width="25" height="26" filterUnits="userSpaceOnUse" color-interpolation-filters="sRGB">
<feFlood flood-opacity="0" result="BackgroundImageFix"/>
<feColorMatrix in="SourceAlpha" type="matrix" values="0 0 0 0 0 0 0 0 0 0 0 0 0 0 0 0 0 0 127 0"/>
<feOffset/>
<feGaussianBlur stdDeviation="1.5"/>
<feColorMatrix type="matrix" values="0 0 0 0 1 0 0 0 0 1 0 0 0 0 1 0 0 0 1 0"/>
<feBlend mode="normal" in2="BackgroundImageFix" result="effect1_dropShadow"/>
<feBlend mode="normal" in="SourceGraphic" in2="effect1_dropShadow" result="shape"/>
</filter>
<clipPath id="clip0">
<rect width="24" height="24" fill="white" transform="translate(0.964661 0.9646)"/>
</clipPath>
</defs>
</svg>
