<svg width="24" height="24" viewBox="0 0 24 24" fill="none" xmlns="http://www.w3.org/2000/svg">
<g clip-path="url(#clip0)">
<g filter="url(#filter0_d)">
<path d="M8.76107 6.5188C10.0068 6.5188 11.0034 7.51539 11.0034 8.76113C11.0034 9.19963 10.8788 9.60823 10.6596 9.95704L10.7094 10.0069H13.2906L13.3404 9.95704C13.1212 9.60823 12.9966 9.19963 12.9966 8.76113C12.9966 7.51539 13.9932 6.5188 15.2389 6.5188C16.4847 6.5188 17.4812 7.51539 17.4812 8.76113C17.4812 10.0069 16.4847 11.0035 15.2389 11.0035C14.8004 11.0035 14.3918 10.8789 14.043 10.6596L13.4949 11.2078V12.7923L14.043 13.3405C14.3918 13.1212 14.8004 12.9966 15.2389 12.9966C16.4847 12.9966 17.4812 13.9932 17.4812 15.239C17.4812 16.4847 16.4847 17.4813 15.2389 17.4813C13.9932 17.4813 12.9966 16.4847 12.9966 15.239C12.9966 14.8005 13.1212 14.3919 13.3404 14.0431L13.2906 13.9932H10.7094L10.6596 14.0431C10.8788 14.3919 11.0034 14.8005 11.0034 15.239C11.0034 16.4847 10.0068 17.4813 8.76107 17.4813C7.51533 17.4813 6.51874 16.4847 6.51874 15.239C6.51874 13.9932 7.51533 12.9966 8.76107 12.9966C9.19957 12.9966 9.60817 13.1212 9.95698 13.3405L10.5051 12.7923V11.2078L9.95698 10.6596C9.60817 10.8789 9.19957 11.0035 8.76107 11.0035C7.51533 11.0035 6.51874 10.0069 6.51874 8.76113C6.51874 7.51539 7.51533 6.5188 8.76107 6.5188ZM8.76107 7.51539C8.43068 7.51539 8.11382 7.64664 7.8802 7.88026C7.64658 8.11388 7.51533 8.43074 7.51533 8.76113C7.51533 9.09152 7.64658 9.40838 7.8802 9.642C8.11382 9.87562 8.43068 10.0069 8.76107 10.0069C9.09146 10.0069 9.40832 9.87562 9.64194 9.642C9.87556 9.40838 10.0068 9.09152 10.0068 8.76113C10.0068 8.43074 9.87556 8.11388 9.64194 7.88026C9.40832 7.64664 9.09146 7.51539 8.76107 7.51539ZM8.76107 13.9932C8.43068 13.9932 8.11382 14.1245 7.8802 14.3581C7.64658 14.5917 7.51533 14.9086 7.51533 15.239C7.51533 15.5694 7.64658 15.8862 7.8802 16.1198C8.11382 16.3535 8.43068 16.4847 8.76107 16.4847C9.09146 16.4847 9.40832 16.3535 9.64194 16.1198C9.87556 15.8862 10.0068 15.5694 10.0068 15.239C10.0068 14.9086 9.87556 14.5917 9.64194 14.3581C9.40832 14.1245 9.09146 13.9932 8.76107 13.9932ZM15.2389 7.51539C14.9085 7.51539 14.5917 7.64664 14.358 7.88026C14.1244 8.11388 13.9932 8.43074 13.9932 8.76113C13.9932 9.09152 14.1244 9.40838 14.358 9.642C14.5917 9.87562 14.9085 10.0069 15.2389 10.0069C15.5693 10.0069 15.8862 9.87562 16.1198 9.642C16.3534 9.40838 16.4847 9.09152 16.4847 8.76113C16.4847 8.43074 16.3534 8.11388 16.1198 7.88026C15.8862 7.64664 15.5693 7.51539 15.2389 7.51539ZM15.2389 13.9932C14.9085 13.9932 14.5917 14.1245 14.358 14.3581C14.1244 14.5917 13.9932 14.9086 13.9932 15.239C13.9932 15.5694 14.1244 15.8862 14.358 16.1198C14.5917 16.3535 14.9085 16.4847 15.2389 16.4847C15.5693 16.4847 15.8862 16.3535 16.1198 16.1198C16.3534 15.8862 16.4847 15.5694 16.4847 15.239C16.4847 14.9086 16.3534 14.5917 16.1198 14.3581C15.8862 14.1245 15.5693 13.9932 15.2389 13.9932ZM7.96878 14.6161L8.53185 14.945C8.59663 14.8952 8.67636 14.8653 8.76107 14.8653C8.86019 14.8653 8.95524 14.9046 9.02533 14.9747C9.09542 15.0448 9.13479 15.1399 9.13479 15.239L9.12981 15.2888L9.69288 15.6127L9.55336 15.8618L8.99028 15.533C8.92551 15.5828 8.84578 15.6127 8.76107 15.6127C8.66195 15.6127 8.56689 15.5733 8.49681 15.5032C8.42672 15.4332 8.38735 15.3381 8.38735 15.239L8.39233 15.1891L7.82926 14.8653L7.96878 14.6161ZM7.82926 9.13485L8.39233 8.81096L8.38735 8.76113C8.38735 8.66201 8.42672 8.56696 8.49681 8.49687C8.56689 8.42678 8.66195 8.38741 8.76107 8.38741C8.84578 8.38741 8.92551 8.41731 8.99028 8.46714L9.55336 8.13826L9.69288 8.38741L9.12981 8.7113L9.13479 8.76113C9.13479 8.86025 9.09542 8.9553 9.02533 9.02539C8.95524 9.09548 8.86019 9.13485 8.76107 9.13485C8.67636 9.13485 8.59663 9.10495 8.53185 9.05512L7.96878 9.384L7.82926 9.13485ZM14.4466 8.13826L15.0097 8.46714C15.0745 8.41731 15.1542 8.38741 15.2389 8.38741C15.338 8.38741 15.4331 8.42678 15.5032 8.49687C15.5733 8.56696 15.6126 8.66201 15.6126 8.76113L15.6077 8.81096L16.1707 9.13485L16.0312 9.384L15.4681 9.05512C15.4034 9.10495 15.3236 9.13485 15.2389 9.13485C15.1398 9.13485 15.0447 9.09548 14.9747 9.02539C14.9046 8.9553 14.8652 8.86025 14.8652 8.76113L14.8702 8.7113L14.3071 8.38741L14.4466 8.13826ZM14.3071 15.6127L14.8652 15.239C14.8652 15.1399 14.9046 15.0448 14.9747 14.9747C15.0447 14.9046 15.1398 14.8653 15.2389 14.8653C15.3236 14.8653 15.4034 14.8952 15.4681 14.945L16.0312 14.6161L16.1707 14.8653L15.6126 15.239C15.6126 15.3381 15.5733 15.4332 15.5032 15.5032C15.4331 15.5733 15.338 15.6127 15.2389 15.6127C15.1542 15.6127 15.0745 15.5828 15.0097 15.533L14.4466 15.8618L14.3071 15.6127Z" fill="#F3F499"/>
<path d="M8.76107 6.5188C10.0068 6.5188 11.0034 7.51539 11.0034 8.76113C11.0034 9.19963 10.8788 9.60823 10.6596 9.95704L10.7094 10.0069H13.2906L13.3404 9.95704C13.1212 9.60823 12.9966 9.19963 12.9966 8.76113C12.9966 7.51539 13.9932 6.5188 15.2389 6.5188C16.4847 6.5188 17.4812 7.51539 17.4812 8.76113C17.4812 10.0069 16.4847 11.0035 15.2389 11.0035C14.8004 11.0035 14.3918 10.8789 14.043 10.6596L13.4949 11.2078V12.7923L14.043 13.3405C14.3918 13.1212 14.8004 12.9966 15.2389 12.9966C16.4847 12.9966 17.4812 13.9932 17.4812 15.239C17.4812 16.4847 16.4847 17.4813 15.2389 17.4813C13.9932 17.4813 12.9966 16.4847 12.9966 15.239C12.9966 14.8005 13.1212 14.3919 13.3404 14.0431L13.2906 13.9932H10.7094L10.6596 14.0431C10.8788 14.3919 11.0034 14.8005 11.0034 15.239C11.0034 16.4847 10.0068 17.4813 8.76107 17.4813C7.51533 17.4813 6.51874 16.4847 6.51874 15.239C6.51874 13.9932 7.51533 12.9966 8.76107 12.9966C9.19957 12.9966 9.60817 13.1212 9.95698 13.3405L10.5051 12.7923V11.2078L9.95698 10.6596C9.60817 10.8789 9.19957 11.0035 8.76107 11.0035C7.51533 11.0035 6.51874 10.0069 6.51874 8.76113C6.51874 7.51539 7.51533 6.5188 8.76107 6.5188ZM8.76107 7.51539C8.43068 7.51539 8.11382 7.64664 7.8802 7.88026C7.64658 8.11388 7.51533 8.43074 7.51533 8.76113C7.51533 9.09152 7.64658 9.40838 7.8802 9.642C8.11382 9.87562 8.43068 10.0069 8.76107 10.0069C9.09146 10.0069 9.40832 9.87562 9.64194 9.642C9.87556 9.40838 10.0068 9.09152 10.0068 8.76113C10.0068 8.43074 9.87556 8.11388 9.64194 7.88026C9.40832 7.64664 9.09146 7.51539 8.76107 7.51539ZM8.76107 13.9932C8.43068 13.9932 8.11382 14.1245 7.8802 14.3581C7.64658 14.5917 7.51533 14.9086 7.51533 15.239C7.51533 15.5694 7.64658 15.8862 7.8802 16.1198C8.11382 16.3535 8.43068 16.4847 8.76107 16.4847C9.09146 16.4847 9.40832 16.3535 9.64194 16.1198C9.87556 15.8862 10.0068 15.5694 10.0068 15.239C10.0068 14.9086 9.87556 14.5917 9.64194 14.3581C9.40832 14.1245 9.09146 13.9932 8.76107 13.9932ZM15.2389 7.51539C14.9085 7.51539 14.5917 7.64664 14.358 7.88026C14.1244 8.11388 13.9932 8.43074 13.9932 8.76113C13.9932 9.09152 14.1244 9.40838 14.358 9.642C14.5917 9.87562 14.9085 10.0069 15.2389 10.0069C15.5693 10.0069 15.8862 9.87562 16.1198 9.642C16.3534 9.40838 16.4847 9.09152 16.4847 8.76113C16.4847 8.43074 16.3534 8.11388 16.1198 7.88026C15.8862 7.64664 15.5693 7.51539 15.2389 7.51539ZM15.2389 13.9932C14.9085 13.9932 14.5917 14.1245 14.358 14.3581C14.1244 14.5917 13.9932 14.9086 13.9932 15.239C13.9932 15.5694 14.1244 15.8862 14.358 16.1198C14.5917 16.3535 14.9085 16.4847 15.2389 16.4847C15.5693 16.4847 15.8862 16.3535 16.1198 16.1198C16.3534 15.8862 16.4847 15.5694 16.4847 15.239C16.4847 14.9086 16.3534 14.5917 16.1198 14.3581C15.8862 14.1245 15.5693 13.9932 15.2389 13.9932ZM7.96878 14.6161L8.53185 14.945C8.59663 14.8952 8.67636 14.8653 8.76107 14.8653C8.86019 14.8653 8.95524 14.9046 9.02533 14.9747C9.09542 15.0448 9.13479 15.1399 9.13479 15.239L9.12981 15.2888L9.69288 15.6127L9.55336 15.8618L8.99028 15.533C8.92551 15.5828 8.84578 15.6127 8.76107 15.6127C8.66195 15.6127 8.56689 15.5733 8.49681 15.5032C8.42672 15.4332 8.38735 15.3381 8.38735 15.239L8.39233 15.1891L7.82926 14.8653L7.96878 14.6161ZM7.82926 9.13485L8.39233 8.81096L8.38735 8.76113C8.38735 8.66201 8.42672 8.56696 8.49681 8.49687C8.56689 8.42678 8.66195 8.38741 8.76107 8.38741C8.84578 8.38741 8.92551 8.41731 8.99028 8.46714L9.55336 8.13826L9.69288 8.38741L9.12981 8.7113L9.13479 8.76113C9.13479 8.86025 9.09542 8.9553 9.02533 9.02539C8.95524 9.09548 8.86019 9.13485 8.76107 9.13485C8.67636 9.13485 8.59663 9.10495 8.53185 9.05512L7.96878 9.384L7.82926 9.13485ZM14.4466 8.13826L15.0097 8.46714C15.0745 8.41731 15.1542 8.38741 15.2389 8.38741C15.338 8.38741 15.4331 8.42678 15.5032 8.49687C15.5733 8.56696 15.6126 8.66201 15.6126 8.76113L15.6077 8.81096L16.1707 9.13485L16.0312 9.384L15.4681 9.05512C15.4034 9.10495 15.3236 9.13485 15.2389 9.13485C15.1398 9.13485 15.0447 9.09548 14.9747 9.02539C14.9046 8.9553 14.8652 8.86025 14.8652 8.76113L14.8702 8.7113L14.3071 8.38741L14.4466 8.13826ZM14.3071 15.6127L14.8652 15.239C14.8652 15.1399 14.9046 15.0448 14.9747 14.9747C15.0447 14.9046 15.1398 14.8653 15.2389 14.8653C15.3236 14.8653 15.4034 14.8952 15.4681 14.945L16.0312 14.6161L16.1707 14.8653L15.6126 15.239C15.6126 15.3381 15.5733 15.4332 15.5032 15.5032C15.4331 15.5733 15.338 15.6127 15.2389 15.6127C15.1542 15.6127 15.0745 15.5828 15.0097 15.533L14.4466 15.8618L14.3071 15.6127Z" stroke="white" stroke-width="0.5"/>
</g>
</g>
<defs>
<filter id="filter0_d" x="-2.73126" y="-2.7312" width="29.4625" height="29.4625" filterUnits="userSpaceOnUse" color-interpolation-filters="sRGB">
<feFlood flood-opacity="0" result="BackgroundImageFix"/>
<feColorMatrix in="SourceAlpha" type="matrix" values="0 0 0 0 0 0 0 0 0 0 0 0 0 0 0 0 0 0 127 0"/>
<feOffset/>
<feGaussianBlur stdDeviation="4.5"/>
<feColorMatrix type="matrix" values="0 0 0 0 0.922667 0 0 0 0 1 0 0 0 0 0.0333333 0 0 0 1 0"/>
<feBlend mode="normal" in2="BackgroundImageFix" result="effect1_dropShadow"/>
<feBlend mode="normal" in="SourceGraphic" in2="effect1_dropShadow" result="shape"/>
</filter>
<clipPath id="clip0">
<rect width="24" height="24" fill="white"/>
</clipPath>
</defs>
</svg>
